<svg viewBox="0 0 14 14" fill="none" xmlns="http://www.w3.org/2000/svg" height="14" width="14"><g id="database--raid-storage-code-disk-programming-database-array-hard-disc"><path id="Subtract" fill-rule="evenodd" clip-rule="evenodd" d="M2.507 1.103c-0.959 0.425 -1.295 0.957 -1.295 1.53 0 0.572 0.336 1.105 1.295 1.53 0.974 0.43 2.477 0.684 4.493 0.684 2.016 0 3.518 -0.253 4.493 -0.685 0.958 -0.424 1.295 -0.957 1.295 -1.53 0 -0.572 -0.337 -1.104 -1.295 -1.529C10.518 0.672 9.016 0.418 7 0.418c-2.016 0 -3.519 0.254 -4.493 0.685Zm9.492 4.202a4.87 4.87 0 0 0 0.736 -0.402c0.174 -0.118 0.429 -0.01 0.438 0.2 0.02 0.432 0.03 0.868 0.03 1.308 0 0.35 -0.01 0.72 -0.028 1.098a0.246 0.246 0 0 1 -0.123 0.202C9.322 9.876 4.688 9.868 0.95 7.71a0.246 0.246 0 0 1 -0.123 -0.202A22.09 22.09 0 0 1 0.796 6.41c0 -0.404 0.01 -0.851 0.027 -1.305 0.008 -0.212 0.265 -0.322 0.44 -0.204 0.224 0.15 0.472 0.285 0.738 0.403 1.206 0.534 2.91 0.792 4.999 0.792 2.088 0 3.793 -0.258 4.999 -0.792ZM1.347 9.325a0.255 0.255 0 0 0 -0.364 0.253c0.03 0.296 0.06 0.575 0.088 0.828 0.11 0.986 0.667 1.915 1.63 2.346 0.99 0.443 2.518 0.956 4.3 0.956 1.78 0 3.308 -0.513 4.299 -0.956 0.963 -0.431 1.519 -1.36 1.63 -2.346 0.028 -0.252 0.058 -0.53 0.087 -0.825a0.255 0.255 0 0 0 -0.364 -0.252 13.368 13.368 0 0 1 -11.306 -0.003Z" fill="#000000" stroke-width="1"></path></g></svg>